# Blender v2.92.0 OBJ File: ''
# www.blender.org
mtllib ograja.mtl
o Cube.005_Cube.006
v -0.162032 -3.554503 -12.279624
v -0.162032 4.411334 -12.279622
v -0.162032 3.554507 -12.835749
v -0.162032 -3.554503 -12.835751
v 0.162032 3.554507 -12.835749
v 0.162032 -3.554503 -12.835751
v 0.162032 -3.554503 -12.279624
v 0.162032 4.411334 -12.279622
v 0.162032 3.554507 -11.723495
v 0.162032 -3.554503 -11.723497
v -0.162032 3.554507 -11.723495
v -0.162032 -3.554503 -11.723497
v -0.162032 -3.554506 0.000000
v -0.162032 4.411333 0.000002
v -0.162032 3.554506 -0.556125
v -0.162032 -3.554506 -0.556127
v 0.162032 3.554506 -0.556125
v 0.162032 -3.554506 -0.556127
v 0.162032 -3.554506 0.000000
v 0.162032 4.411333 0.000002
v 0.162032 3.554506 0.556129
v 0.162032 -3.554506 0.556127
v -0.162032 3.554506 0.556129
v -0.162032 -3.554506 0.556127
v -0.162032 -3.554506 -1.701829
v -0.162032 4.411334 -1.701827
v -0.162032 3.554507 -2.257955
v -0.162032 -3.554506 -2.257956
v 0.162032 3.554507 -2.257955
v 0.162032 -3.554506 -2.257956
v 0.162032 -3.554506 -1.701829
v 0.162032 4.411334 -1.701827
v 0.162032 3.554506 -1.145700
v 0.162032 -3.554506 -1.145702
v -0.162032 3.554506 -1.145700
v -0.162032 -3.554506 -1.145702
v -0.162032 -3.554506 -3.590075
v -0.162032 4.411334 -3.590073
v -0.162032 3.554507 -4.146199
v -0.162032 -3.554505 -4.146200
v 0.162032 3.554507 -4.146199
v 0.162032 -3.554505 -4.146200
v 0.162032 -3.554506 -3.590075
v 0.162032 4.411334 -3.590073
v 0.162032 3.554507 -3.033947
v 0.162032 -3.554506 -3.033947
v -0.162032 3.554507 -3.033947
v -0.162032 -3.554506 -3.033947
v -0.162032 -3.554505 -5.291903
v -0.162032 4.411334 -5.291902
v -0.162032 3.554507 -5.848029
v -0.162032 -3.554505 -5.848030
v 0.162032 3.554507 -5.848029
v 0.162032 -3.554505 -5.848030
v 0.162032 -3.554505 -5.291903
v 0.162032 4.411334 -5.291902
v 0.162032 3.554507 -4.735775
v 0.162032 -3.554505 -4.735776
v -0.162032 3.554507 -4.735775
v -0.162032 -3.554505 -4.735776
v -0.162032 -3.554505 -6.987720
v -0.162032 4.411334 -6.987718
v -0.162032 3.554507 -7.543845
v -0.162032 -3.554505 -7.543846
v 0.162032 3.554507 -7.543845
v 0.162032 -3.554505 -7.543846
v 0.162032 -3.554505 -6.987720
v 0.162032 4.411334 -6.987718
v 0.162032 3.554507 -6.431592
v 0.162032 -3.554505 -6.431592
v -0.162032 3.554507 -6.431592
v -0.162032 -3.554505 -6.431592
v -0.162032 -3.554505 -8.689548
v -0.162032 4.411335 -8.689547
v -0.162032 3.554507 -9.245673
v -0.162032 -3.554505 -9.245675
v 0.162032 3.554507 -9.245673
v 0.162032 -3.554505 -9.245675
v 0.162032 -3.554505 -8.689548
v 0.162032 4.411335 -8.689547
v 0.162032 3.554507 -8.133421
v 0.162032 -3.554505 -8.133423
v -0.162032 3.554507 -8.133421
v -0.162032 -3.554505 -8.133423
v -0.162032 -3.554504 -10.577794
v -0.162032 4.411335 -10.577792
v -0.162032 3.554508 -11.133919
v -0.162032 -3.554504 -11.133921
v 0.162032 3.554508 -11.133919
v 0.162032 -3.554504 -11.133921
v 0.162032 -3.554504 -10.577794
v 0.162032 4.411335 -10.577792
v 0.162032 3.554508 -10.021666
v 0.162032 -3.554504 -10.021667
v -0.162032 3.554508 -10.021666
v -0.162032 -3.554504 -10.021667
v -0.615811 0.923539 1.310043
v -0.615811 2.178664 1.310043
v -0.615811 2.178666 -13.454420
v -0.615811 0.923541 -13.454420
v -0.124488 2.178666 -13.454420
v -0.124488 0.923541 -13.454420
v -0.124488 2.178664 1.310043
v -0.124488 0.923539 1.310043
v -0.615811 -1.685132 1.310043
v -0.615811 -0.430006 1.310043
v -0.615811 -0.430004 -13.454420
v -0.615811 -1.685130 -13.454420
v -0.124488 -0.430004 -13.454420
v -0.124488 -1.685130 -13.454420
v -0.124488 -0.430006 1.310043
v -0.124488 -1.685132 1.310043
vt 0.375000 0.125000
vt 0.625000 0.250000
vt 0.375000 0.250000
vt 0.375000 0.500000
vt 0.375000 0.625000
vt 0.625000 0.750000
vt 0.375000 0.750000
vt 0.375000 1.000000
vt 0.125000 0.750000
vt 0.125000 0.625000
vt 0.875000 0.625000
vt 0.625000 0.625000
vt 0.875000 0.500000
vt 0.625000 0.500000
vt 0.125000 0.500000
vt 0.625000 0.000000
vt 0.375000 0.000000
vt 0.375000 0.125000
vt 0.625000 0.250000
vt 0.375000 0.250000
vt 0.375000 0.500000
vt 0.375000 0.625000
vt 0.625000 0.750000
vt 0.375000 0.750000
vt 0.375000 1.000000
vt 0.125000 0.750000
vt 0.125000 0.625000
vt 0.875000 0.625000
vt 0.625000 0.625000
vt 0.875000 0.500000
vt 0.625000 0.500000
vt 0.125000 0.500000
vt 0.625000 0.000000
vt 0.375000 0.000000
vt 0.375000 0.125000
vt 0.625000 0.250000
vt 0.375000 0.250000
vt 0.375000 0.500000
vt 0.375000 0.625000
vt 0.625000 0.750000
vt 0.375000 0.750000
vt 0.375000 1.000000
vt 0.125000 0.750000
vt 0.125000 0.625000
vt 0.875000 0.625000
vt 0.625000 0.625000
vt 0.875000 0.500000
vt 0.625000 0.500000
vt 0.125000 0.500000
vt 0.625000 0.000000
vt 0.375000 0.000000
vt 0.375000 0.125000
vt 0.625000 0.250000
vt 0.375000 0.250000
vt 0.375000 0.500000
vt 0.375000 0.625000
vt 0.625000 0.750000
vt 0.375000 0.750000
vt 0.375000 1.000000
vt 0.125000 0.750000
vt 0.125000 0.625000
vt 0.875000 0.625000
vt 0.625000 0.625000
vt 0.875000 0.500000
vt 0.625000 0.500000
vt 0.125000 0.500000
vt 0.625000 0.000000
vt 0.375000 0.000000
vt 0.375000 0.125000
vt 0.625000 0.250000
vt 0.375000 0.250000
vt 0.375000 0.500000
vt 0.375000 0.625000
vt 0.625000 0.750000
vt 0.375000 0.750000
vt 0.375000 1.000000
vt 0.125000 0.750000
vt 0.125000 0.625000
vt 0.875000 0.625000
vt 0.625000 0.625000
vt 0.875000 0.500000
vt 0.625000 0.500000
vt 0.125000 0.500000
vt 0.625000 0.000000
vt 0.375000 0.000000
vt 0.375000 0.125000
vt 0.625000 0.250000
vt 0.375000 0.250000
vt 0.375000 0.500000
vt 0.375000 0.625000
vt 0.625000 0.750000
vt 0.375000 0.750000
vt 0.375000 1.000000
vt 0.125000 0.750000
vt 0.125000 0.625000
vt 0.875000 0.625000
vt 0.625000 0.625000
vt 0.875000 0.500000
vt 0.625000 0.500000
vt 0.125000 0.500000
vt 0.625000 0.000000
vt 0.375000 0.000000
vt 0.375000 0.125000
vt 0.625000 0.250000
vt 0.375000 0.250000
vt 0.375000 0.500000
vt 0.375000 0.625000
vt 0.625000 0.750000
vt 0.375000 0.750000
vt 0.375000 1.000000
vt 0.125000 0.750000
vt 0.125000 0.625000
vt 0.875000 0.625000
vt 0.625000 0.625000
vt 0.875000 0.500000
vt 0.625000 0.500000
vt 0.125000 0.500000
vt 0.625000 0.000000
vt 0.375000 0.000000
vt 0.375000 0.125000
vt 0.625000 0.250000
vt 0.375000 0.250000
vt 0.375000 0.500000
vt 0.375000 0.625000
vt 0.625000 0.750000
vt 0.375000 0.750000
vt 0.375000 1.000000
vt 0.125000 0.750000
vt 0.125000 0.625000
vt 0.875000 0.625000
vt 0.625000 0.625000
vt 0.875000 0.500000
vt 0.625000 0.500000
vt 0.125000 0.500000
vt 0.625000 0.000000
vt 0.375000 0.000000
vt 0.625000 0.000000
vt 0.375000 0.250000
vt 0.375000 0.000000
vt 0.625000 0.250000
vt 0.375000 0.500000
vt 0.625000 0.500000
vt 0.375000 0.750000
vt 0.625000 0.750000
vt 0.375000 1.000000
vt 0.125000 0.750000
vt 0.125000 0.500000
vt 0.875000 0.500000
vt 0.625000 0.000000
vt 0.375000 0.250000
vt 0.375000 0.000000
vt 0.625000 0.250000
vt 0.375000 0.500000
vt 0.625000 0.500000
vt 0.375000 0.750000
vt 0.625000 0.750000
vt 0.375000 1.000000
vt 0.125000 0.750000
vt 0.125000 0.500000
vt 0.875000 0.500000
vt 0.625000 0.125000
vt 0.625000 1.000000
vt 0.875000 0.750000
vt 0.625000 0.125000
vt 0.625000 1.000000
vt 0.875000 0.750000
vt 0.625000 0.125000
vt 0.625000 1.000000
vt 0.875000 0.750000
vt 0.625000 0.125000
vt 0.625000 1.000000
vt 0.875000 0.750000
vt 0.625000 0.125000
vt 0.625000 1.000000
vt 0.875000 0.750000
vt 0.625000 0.125000
vt 0.625000 1.000000
vt 0.875000 0.750000
vt 0.625000 0.125000
vt 0.625000 1.000000
vt 0.875000 0.750000
vt 0.625000 0.125000
vt 0.625000 1.000000
vt 0.875000 0.750000
vt 0.625000 1.000000
vt 0.875000 0.750000
vt 0.625000 1.000000
vt 0.875000 0.750000
vn -1.0000 0.0000 0.0000
vn 0.0000 0.0000 -1.0000
vn 1.0000 0.0000 0.0000
vn 0.0000 -0.0000 1.0000
vn 0.0000 -1.0000 -0.0000
vn 0.0000 0.5444 0.8388
vn 0.0000 0.5444 -0.8388
vn 0.0000 1.0000 0.0000
usemtl None.001
s 1
f 1/1/1 3/2/1 4/3/1
f 3/2/2 6/4/2 4/3/2
f 7/5/3 9/6/3 10/7/3
f 9/6/4 12/8/4 10/7/4
f 7/5/5 12/9/5 1/10/5
f 2/11/6 9/6/6 8/12/6
f 3/13/7 8/12/7 5/14/7
f 6/4/5 1/10/5 4/15/5
f 5/14/3 7/5/3 6/4/3
f 11/16/1 1/1/1 12/17/1
f 13/18/1 15/19/1 16/20/1
f 15/19/2 18/21/2 16/20/2
f 19/22/3 21/23/3 22/24/3
f 21/23/4 24/25/4 22/24/4
f 19/22/5 24/26/5 13/27/5
f 14/28/6 21/23/6 20/29/6
f 15/30/7 20/29/7 17/31/7
f 18/21/5 13/27/5 16/32/5
f 17/31/3 19/22/3 18/21/3
f 23/33/1 13/18/1 24/34/1
f 25/35/1 27/36/1 28/37/1
f 27/36/2 30/38/2 28/37/2
f 31/39/3 33/40/3 34/41/3
f 33/40/4 36/42/4 34/41/4
f 31/39/5 36/43/5 25/44/5
f 26/45/6 33/40/6 32/46/6
f 27/47/7 32/46/7 29/48/7
f 30/38/5 25/44/5 28/49/5
f 29/48/3 31/39/3 30/38/3
f 35/50/1 25/35/1 36/51/1
f 37/52/1 39/53/1 40/54/1
f 39/53/2 42/55/2 40/54/2
f 43/56/3 45/57/3 46/58/3
f 45/57/4 48/59/4 46/58/4
f 43/56/5 48/60/5 37/61/5
f 38/62/6 45/57/6 44/63/6
f 39/64/7 44/63/7 41/65/7
f 42/55/5 37/61/5 40/66/5
f 41/65/3 43/56/3 42/55/3
f 47/67/1 37/52/1 48/68/1
f 49/69/1 51/70/1 52/71/1
f 51/70/2 54/72/2 52/71/2
f 55/73/3 57/74/3 58/75/3
f 57/74/4 60/76/4 58/75/4
f 55/73/5 60/77/5 49/78/5
f 50/79/6 57/74/6 56/80/6
f 51/81/7 56/80/7 53/82/7
f 54/72/5 49/78/5 52/83/5
f 53/82/3 55/73/3 54/72/3
f 59/84/1 49/69/1 60/85/1
f 61/86/1 63/87/1 64/88/1
f 63/87/2 66/89/2 64/88/2
f 67/90/3 69/91/3 70/92/3
f 69/91/4 72/93/4 70/92/4
f 67/90/5 72/94/5 61/95/5
f 62/96/6 69/91/6 68/97/6
f 63/98/7 68/97/7 65/99/7
f 66/89/5 61/95/5 64/100/5
f 65/99/3 67/90/3 66/89/3
f 71/101/1 61/86/1 72/102/1
f 73/103/1 75/104/1 76/105/1
f 75/104/2 78/106/2 76/105/2
f 79/107/3 81/108/3 82/109/3
f 81/108/4 84/110/4 82/109/4
f 79/107/5 84/111/5 73/112/5
f 74/113/6 81/108/6 80/114/6
f 75/115/7 80/114/7 77/116/7
f 78/106/5 73/112/5 76/117/5
f 77/116/3 79/107/3 78/106/3
f 83/118/1 73/103/1 84/119/1
f 85/120/1 87/121/1 88/122/1
f 87/121/2 90/123/2 88/122/2
f 91/124/3 93/125/3 94/126/3
f 93/125/4 96/127/4 94/126/4
f 91/124/5 96/128/5 85/129/5
f 86/130/6 93/125/6 92/131/6
f 87/132/7 92/131/7 89/133/7
f 90/123/5 85/129/5 88/134/5
f 89/133/3 91/124/3 90/123/3
f 95/135/1 85/120/1 96/136/1
f 98/137/1 100/138/1 97/139/1
f 99/140/2 102/141/2 100/138/2
f 101/142/3 104/143/3 102/141/3
f 103/144/4 97/145/4 104/143/4
f 102/141/5 97/146/5 100/147/5
f 99/148/8 103/144/8 101/142/8
f 106/149/1 108/150/1 105/151/1
f 107/152/2 110/153/2 108/150/2
f 109/154/3 112/155/3 110/153/3
f 111/156/4 105/157/4 112/155/4
f 110/153/5 105/158/5 108/159/5
f 107/160/8 111/156/8 109/154/8
f 1/1/1 2/161/1 3/2/1
f 3/2/2 5/14/2 6/4/2
f 7/5/3 8/12/3 9/6/3
f 9/6/4 11/162/4 12/8/4
f 7/5/5 10/7/5 12/9/5
f 2/11/6 11/163/6 9/6/6
f 3/13/7 2/11/7 8/12/7
f 6/4/5 7/5/5 1/10/5
f 5/14/3 8/12/3 7/5/3
f 11/16/1 2/161/1 1/1/1
f 13/18/1 14/164/1 15/19/1
f 15/19/2 17/31/2 18/21/2
f 19/22/3 20/29/3 21/23/3
f 21/23/4 23/165/4 24/25/4
f 19/22/5 22/24/5 24/26/5
f 14/28/6 23/166/6 21/23/6
f 15/30/7 14/28/7 20/29/7
f 18/21/5 19/22/5 13/27/5
f 17/31/3 20/29/3 19/22/3
f 23/33/1 14/164/1 13/18/1
f 25/35/1 26/167/1 27/36/1
f 27/36/2 29/48/2 30/38/2
f 31/39/3 32/46/3 33/40/3
f 33/40/4 35/168/4 36/42/4
f 31/39/5 34/41/5 36/43/5
f 26/45/6 35/169/6 33/40/6
f 27/47/7 26/45/7 32/46/7
f 30/38/5 31/39/5 25/44/5
f 29/48/3 32/46/3 31/39/3
f 35/50/1 26/167/1 25/35/1
f 37/52/1 38/170/1 39/53/1
f 39/53/2 41/65/2 42/55/2
f 43/56/3 44/63/3 45/57/3
f 45/57/4 47/171/4 48/59/4
f 43/56/5 46/58/5 48/60/5
f 38/62/6 47/172/6 45/57/6
f 39/64/7 38/62/7 44/63/7
f 42/55/5 43/56/5 37/61/5
f 41/65/3 44/63/3 43/56/3
f 47/67/1 38/170/1 37/52/1
f 49/69/1 50/173/1 51/70/1
f 51/70/2 53/82/2 54/72/2
f 55/73/3 56/80/3 57/74/3
f 57/74/4 59/174/4 60/76/4
f 55/73/5 58/75/5 60/77/5
f 50/79/6 59/175/6 57/74/6
f 51/81/7 50/79/7 56/80/7
f 54/72/5 55/73/5 49/78/5
f 53/82/3 56/80/3 55/73/3
f 59/84/1 50/173/1 49/69/1
f 61/86/1 62/176/1 63/87/1
f 63/87/2 65/99/2 66/89/2
f 67/90/3 68/97/3 69/91/3
f 69/91/4 71/177/4 72/93/4
f 67/90/5 70/92/5 72/94/5
f 62/96/6 71/178/6 69/91/6
f 63/98/7 62/96/7 68/97/7
f 66/89/5 67/90/5 61/95/5
f 65/99/3 68/97/3 67/90/3
f 71/101/1 62/176/1 61/86/1
f 73/103/1 74/179/1 75/104/1
f 75/104/2 77/116/2 78/106/2
f 79/107/3 80/114/3 81/108/3
f 81/108/4 83/180/4 84/110/4
f 79/107/5 82/109/5 84/111/5
f 74/113/6 83/181/6 81/108/6
f 75/115/7 74/113/7 80/114/7
f 78/106/5 79/107/5 73/112/5
f 77/116/3 80/114/3 79/107/3
f 83/118/1 74/179/1 73/103/1
f 85/120/1 86/182/1 87/121/1
f 87/121/2 89/133/2 90/123/2
f 91/124/3 92/131/3 93/125/3
f 93/125/4 95/183/4 96/127/4
f 91/124/5 94/126/5 96/128/5
f 86/130/6 95/184/6 93/125/6
f 87/132/7 86/130/7 92/131/7
f 90/123/5 91/124/5 85/129/5
f 89/133/3 92/131/3 91/124/3
f 95/135/1 86/182/1 85/120/1
f 98/137/1 99/140/1 100/138/1
f 99/140/2 101/142/2 102/141/2
f 101/142/3 103/144/3 104/143/3
f 103/144/4 98/185/4 97/145/4
f 102/141/5 104/143/5 97/146/5
f 99/148/8 98/186/8 103/144/8
f 106/149/1 107/152/1 108/150/1
f 107/152/2 109/154/2 110/153/2
f 109/154/3 111/156/3 112/155/3
f 111/156/4 106/187/4 105/157/4
f 110/153/5 112/155/5 105/158/5
f 107/160/8 106/188/8 111/156/8
